/* XPM */
static char * linux_xpm[] = {
"20 20 55 1",
" 	c None",
".	c #51A1DB",
"+	c #51A2DA",
"@	c #52A2DA",
"#	c #51A2DB",
"$	c #79B1DE",
"%	c #68AADC",
"&	c #71AFDE",
"*	c #CEE3F3",
"=	c #F2F6F8",
"-	c #F0F5F8",
";	c #E2EEF7",
">	c #6FAEDE",
",	c #51A3DA",
"'	c #D4E7F4",
")	c #C7DFF0",
"!	c #59A6DC",
"~	c #62ABDE",
"{	c #CBE1F1",
"]	c #DFEDF6",
"^	c #7AB1DE",
"/	c #F7F8F9",
"(	c #7EB4E0",
"_	c #97C0E4",
":	c #7AB2DE",
"<	c #F9FAFA",
"[	c #92BDE3",
"}	c #B7D6ED",
"|	c #6AABDD",
"1	c #A6CEEA",
"2	c #F2F7FA",
"3	c #FFFFFF",
"4	c #FAFAFA",
"5	c #F9F9FA",
"6	c #8CC1E5",
"7	c #A7CFEA",
"8	c #E6F0F8",
"9	c #6FB1E0",
"0	c #52A3DA",
"a	c #EDF4F9",
"b	c #6DB0DF",
"c	c #F3F6FA",
"d	c #67ADDE",
"e	c #71B0DF",
"f	c #BBD9EE",
"g	c #E3EFF6",
"h	c #63ABDD",
"i	c #80B5E0",
"j	c #D7E8F4",
"k	c #E4F0F8",
"l	c #5AA7DC",
"m	c #B2D5EC",
"n	c #E7F0F7",
"o	c #EDF3F7",
"p	c #51A2D9",
"                    ",
"       .+@@+#       ",
"     ++++++++++     ",
"    ++++++++++++    ",
"   +++++++$$$%+++   ",
"  +++++++&*=-;>++,  ",
"  ++++++%')!~{]%++  ",
" +++++++^/(++_=%++@ ",
" #++++++:<$++[}++++ ",
" ++++%$$:<$++++++++ ",
" +++|12<:3456++++++ ",
" +++7890:3$++++++++ ",
" ++$ab++:3$++++++++ ",
" ++$cd++e-$+++++++  ",
" ++$fghijk++++++++  ",
" +++lmno*e+++++++   ",
" ++++%$$$+++++++    ",
" p++++++++++++#     ",
"  ++++++++++,       ",
"                    "};
